<svg width="32" height="30" viewBox="0 0 32 30" fill="none" xmlns="http://www.w3.org/2000/svg">
<g filter="url(#filter0_d)">
<path d="M13.9135 5.36612C14.3908 4.87796 15.1647 4.87796 15.642 5.36612C16.1193 5.85427 16.1193 6.64573 15.642 7.13388L9.17267 13.75H25.7778C26.4046 13.75 26.9212 14.2325 26.9918 14.8542L27 15C27 15.6904 26.4528 16.25 25.7778 16.25H9.17267L15.642 22.8661C16.0826 23.3167 16.1165 24.0258 15.7437 24.5161L15.642 24.6339C15.1647 25.122 14.3908 25.122 13.9135 24.6339L5.35798 15.8839L5.26851 15.7818C5.26568 15.7782 5.26287 15.7746 5.26007 15.7709C5.25335 15.7623 5.24659 15.7533 5.23996 15.7441C5.21815 15.7139 5.19766 15.6828 5.17853 15.6508C5.16941 15.6358 5.16072 15.6205 5.15238 15.6051C5.13908 15.5804 5.12635 15.5549 5.11447 15.5289C5.10472 15.5076 5.09557 15.486 5.08705 15.4642C5.07739 15.4395 5.06859 15.4147 5.06056 15.3897C5.05467 15.3711 5.04901 15.3518 5.04381 15.3325C5.03646 15.3055 5.03012 15.2784 5.02465 15.251C5.02041 15.2292 5.01666 15.2074 5.01347 15.1856C5.0046 15.1255 5 15.0633 5 15L5.00485 15.1116C5.00232 15.0825 5.00078 15.0534 5.00023 15.0242L5 15C5 14.992 5.00007 14.984 5.00022 14.976C5.00073 14.9475 5.00228 14.9179 5.00485 14.8884C5.00705 14.8627 5.00991 14.8381 5.01347 14.8138C5.01666 14.7926 5.02041 14.7708 5.02474 14.7491C5.03012 14.7216 5.03646 14.6945 5.04366 14.6677C5.04901 14.6482 5.05467 14.6289 5.06079 14.6098C5.06859 14.5853 5.07739 14.5605 5.0869 14.5362C5.09557 14.514 5.10472 14.4924 5.11449 14.471C5.12635 14.4451 5.13908 14.4196 5.15263 14.3947C5.16072 14.3795 5.16941 14.3642 5.17844 14.3491C5.19766 14.3172 5.21815 14.2861 5.23994 14.2561C5.27538 14.2071 5.31472 14.1604 5.35798 14.1161L5.26007 14.2291C5.29048 14.1894 5.32319 14.1517 5.35798 14.1161L13.9135 5.36612Z" fill="#37ECF5"/>
</g>
<defs>
<filter id="filter0_d" x="0" y="0" width="32" height="30" filterUnits="userSpaceOnUse" color-interpolation-filters="sRGB">
<feFlood flood-opacity="0" result="BackgroundImageFix"/>
<feColorMatrix in="SourceAlpha" type="matrix" values="0 0 0 0 0 0 0 0 0 0 0 0 0 0 0 0 0 0 127 0"/>
<feOffset/>
<feGaussianBlur stdDeviation="2.5"/>
<feColorMatrix type="matrix" values="0 0 0 0 0.215686 0 0 0 0 0.92549 0 0 0 0 0.960784 0 0 0 0.33 0"/>
<feBlend mode="normal" in2="BackgroundImageFix" result="effect1_dropShadow"/>
<feBlend mode="normal" in="SourceGraphic" in2="effect1_dropShadow" result="shape"/>
</filter>
</defs>
</svg>
