<svg width="46" height="46" viewBox="0 0 46 46" fill="none" xmlns="http://www.w3.org/2000/svg">
<circle cx="23" cy="23" r="23" fill="#D34E57"/>
<path d="M23 11C29.6258 11 35 16.3723 35 23C35 29.6277 29.6258 35 23 35C16.3723 35 11 29.6277 11 23C11 16.3723 16.3723 11 23 11ZM23 13C17.4769 13 13 17.4769 13 23C13 28.5231 17.4769 33 23 33C28.522 33 33 28.5224 33 23C33 17.4776 28.522 13 23 13ZM22.5 17.0001C23.0523 17.0001 23.5 17.4478 23.5 18.0001V23.1037L28.3746 25.0729C28.8866 25.2798 29.1341 25.8626 28.9272 26.3747C28.7203 26.8867 28.1375 27.1342 27.6254 26.9273L22.1254 24.7054C21.7475 24.5527 21.5 24.1859 21.5 23.7782V18.0001C21.5 17.4478 21.9477 17.0001 22.5 17.0001Z" fill="#151822"/>
</svg>
