<svg width="46" height="46" viewBox="0 0 46 46" fill="none" xmlns="http://www.w3.org/2000/svg">
<circle cx="23" cy="23" r="23" fill="#D34E57"/>
<path d="M15.2929 15.2929C15.6834 14.9024 16.3166 14.9024 16.7071 15.2929L23 21.585L29.2929 15.2929C29.6534 14.9324 30.2206 14.9047 30.6129 15.2097L30.7071 15.2929C31.0976 15.6834 31.0976 16.3166 30.7071 16.7071L24.415 23L30.7071 29.2929C31.0676 29.6534 31.0953 30.2206 30.7903 30.6129L30.7071 30.7071C30.3166 31.0976 29.6834 31.0976 29.2929 30.7071L23 24.415L16.7071 30.7071C16.3466 31.0676 15.7794 31.0953 15.3871 30.7903L15.2929 30.7071C14.9024 30.3166 14.9024 29.6834 15.2929 29.2929L21.585 23L15.2929 16.7071C14.9324 16.3466 14.9047 15.7794 15.2097 15.3871L15.2929 15.2929Z" fill="#151822"/>
</svg>
