<svg width="28" height="38" viewBox="0 0 28 38" fill="none" xmlns="http://www.w3.org/2000/svg">
<g filter="url(#filter0_d)">
<path d="M10.6609 30.069C9.89193 33.2808 11.0465 33.9462 13.112 31.6014L21.7881 21.2629C23.7955 18.722 23.2927 16.6805 20.4019 16.1702L16.2188 15.3668C15.9744 15.3199 15.813 15.0764 15.8582 14.8229C15.8597 14.8146 15.8614 14.8063 15.8634 14.798L17.4731 7.91013C18.2443 4.67787 16.959 4.09252 15.031 6.38309C12.2608 9.62227 10.1556 12.0692 8.71544 13.7239C8.21333 14.3008 7.40513 15.2013 6.29081 16.4254C3.84867 19.2357 5.13399 21.2739 7.95872 21.7842L11.9565 22.5274C12.2011 22.5729 12.3639 22.8154 12.32 23.0691C12.3183 23.0789 12.3164 23.0886 12.3141 23.0982L10.6609 30.069Z" fill="#D34E57"/>
</g>
<defs>
<filter id="filter0_d" x="0" y="0" width="28" height="38" filterUnits="userSpaceOnUse" color-interpolation-filters="sRGB">
<feFlood flood-opacity="0" result="BackgroundImageFix"/>
<feColorMatrix in="SourceAlpha" type="matrix" values="0 0 0 0 0 0 0 0 0 0 0 0 0 0 0 0 0 0 127 0"/>
<feOffset/>
<feGaussianBlur stdDeviation="2.5"/>
<feColorMatrix type="matrix" values="0 0 0 0 0.827451 0 0 0 0 0.305882 0 0 0 0 0.341176 0 0 0 0.33 0"/>
<feBlend mode="normal" in2="BackgroundImageFix" result="effect1_dropShadow"/>
<feBlend mode="normal" in="SourceGraphic" in2="effect1_dropShadow" result="shape"/>
</filter>
</defs>
</svg>
