<svg width="58" height="58" viewBox="0 0 58 58" fill="none" xmlns="http://www.w3.org/2000/svg">
<g filter="url(#filter0_d)">
<path d="M31.4645 5.97263L50.9627 24.2819C52.2635 25.5033 53 27.199 53 28.9725V47.6085C53 50.5861 50.5579 53 47.5455 53H34.4545C33.2496 53 32.2727 52.0345 32.2727 50.8434V38.9818C32.2727 37.1952 30.8075 35.7469 29 35.7469C27.1925 35.7469 25.7273 37.1952 25.7273 38.9818V50.8434C25.7273 52.0345 24.7504 53 23.5455 53H10.4545C7.44208 53 5 50.5861 5 47.6085V28.9725C5 27.199 5.7365 25.5033 7.03728 24.2819L26.5355 5.97263C27.9166 4.67579 30.0834 4.67579 31.4645 5.97263ZM29 9.60769L10.0427 27.409C9.60914 27.8161 9.36364 28.3813 9.36364 28.9725V47.6085C9.36364 48.204 9.85205 48.6868 10.4545 48.6868H21.3636V38.9818C21.3636 34.8131 24.7826 31.4337 29 31.4337C33.2174 31.4337 36.6364 34.8131 36.6364 38.9818V48.6868H47.5455C48.1479 48.6868 48.6364 48.204 48.6364 47.6085V28.9725C48.6364 28.3813 48.3909 27.8161 47.9573 27.409L29 9.60769Z" fill="#37ECF5"/>
</g>
<defs>
<filter id="filter0_d" x="0" y="0" width="58" height="58" filterUnits="userSpaceOnUse" color-interpolation-filters="sRGB">
<feFlood flood-opacity="0" result="BackgroundImageFix"/>
<feColorMatrix in="SourceAlpha" type="matrix" values="0 0 0 0 0 0 0 0 0 0 0 0 0 0 0 0 0 0 127 0"/>
<feOffset/>
<feGaussianBlur stdDeviation="2.5"/>
<feColorMatrix type="matrix" values="0 0 0 0 0.215686 0 0 0 0 0.92549 0 0 0 0 0.960784 0 0 0 0.33 0"/>
<feBlend mode="normal" in2="BackgroundImageFix" result="effect1_dropShadow"/>
<feBlend mode="normal" in="SourceGraphic" in2="effect1_dropShadow" result="shape"/>
</filter>
</defs>
</svg>
