<svg width="53" height="53" viewBox="0 0 53 53" fill="none" xmlns="http://www.w3.org/2000/svg">
<g filter="url(#filter0_d)">
<path d="M13 8H44.5V39.5L39.5 44.5L8 44.5V13.5L13 8Z" fill="#1B1F2C"/>
<path d="M13 6.5H12.3364L11.8901 6.99099L6.89009 12.491L6.5 12.9201V13.5V44.5V46H8L39.5 46H40.1213L40.5607 45.5607L45.5607 40.5607L46 40.1213V39.5V8V6.5H44.5H13Z" stroke="#D34E57" stroke-width="3"/>
</g>
<g filter="url(#filter1_dd)">
<path d="M26.1333 16.5C28.8782 16.5 31.4392 17.5855 33.3113 19.4406L33.3111 18.1667L33.3168 18.0695C33.3656 17.655 33.7225 17.3333 34.1556 17.3333C34.6219 17.3333 35 17.7064 35 18.1667V21.5L34.9943 21.5972C34.9455 22.0116 34.5886 22.3333 34.1556 22.3333H30.7778L30.6793 22.3277C30.2593 22.2796 29.9333 21.9274 29.9333 21.5C29.9333 21.0398 30.3114 20.6667 30.7778 20.6667L32.165 20.667C30.6002 19.09 28.4459 18.1667 26.1333 18.1667C21.4696 18.1667 17.6889 21.8976 17.6889 26.5C17.6889 31.1024 21.4696 34.8333 26.1333 34.8333C28.4047 34.8333 30.5314 33.9454 32.1054 32.3916C32.4352 32.0661 32.9698 32.066 33.2997 32.3914C33.6295 32.7168 33.6296 33.2444 33.2999 33.5699C31.4122 35.4333 28.8573 36.5 26.1333 36.5C20.5368 36.5 16 32.0228 16 26.5C16 20.9772 20.5368 16.5 26.1333 16.5ZM25.7111 21.5C26.1775 21.5 26.5556 21.8731 26.5556 22.3333V26.1548L28.8416 28.4107C29.1713 28.7362 29.1713 29.2638 28.8416 29.5893C28.5118 29.9147 27.9771 29.9147 27.6473 29.5893L25.114 27.0893C24.9556 26.933 24.8667 26.721 24.8667 26.5V22.3333C24.8667 21.8731 25.2447 21.5 25.7111 21.5Z" fill="#37ECF5"/>
</g>
<defs>
<filter id="filter0_d" x="0" y="0" width="52.5" height="52.5" filterUnits="userSpaceOnUse" color-interpolation-filters="sRGB">
<feFlood flood-opacity="0" result="BackgroundImageFix"/>
<feColorMatrix in="SourceAlpha" type="matrix" values="0 0 0 0 0 0 0 0 0 0 0 0 0 0 0 0 0 0 127 0"/>
<feOffset/>
<feGaussianBlur stdDeviation="2.5"/>
<feColorMatrix type="matrix" values="0 0 0 0 0.827451 0 0 0 0 0.305882 0 0 0 0 0.341176 0 0 0 1 0"/>
<feBlend mode="normal" in2="BackgroundImageFix" result="effect1_dropShadow"/>
<feBlend mode="normal" in="SourceGraphic" in2="effect1_dropShadow" result="shape"/>
</filter>
<filter id="filter1_dd" x="11" y="11.5" width="29" height="30" filterUnits="userSpaceOnUse" color-interpolation-filters="sRGB">
<feFlood flood-opacity="0" result="BackgroundImageFix"/>
<feColorMatrix in="SourceAlpha" type="matrix" values="0 0 0 0 0 0 0 0 0 0 0 0 0 0 0 0 0 0 127 0"/>
<feOffset/>
<feGaussianBlur stdDeviation="2.5"/>
<feColorMatrix type="matrix" values="0 0 0 0 0.215686 0 0 0 0 0.92549 0 0 0 0 0.960784 0 0 0 0.33 0"/>
<feBlend mode="normal" in2="BackgroundImageFix" result="effect1_dropShadow"/>
<feColorMatrix in="SourceAlpha" type="matrix" values="0 0 0 0 0 0 0 0 0 0 0 0 0 0 0 0 0 0 127 0"/>
<feOffset/>
<feGaussianBlur stdDeviation="2.5"/>
<feColorMatrix type="matrix" values="0 0 0 0 0.215686 0 0 0 0 0.92549 0 0 0 0 0.960784 0 0 0 0.33 0"/>
<feBlend mode="normal" in2="effect1_dropShadow" result="effect2_dropShadow"/>
<feBlend mode="normal" in="SourceGraphic" in2="effect2_dropShadow" result="shape"/>
</filter>
</defs>
</svg>
