<svg width="34" height="32" viewBox="0 0 34 32" fill="none" xmlns="http://www.w3.org/2000/svg">
<g filter="url(#filter0_d)">
<path d="M23.8722 5C25.6553 5 26.3018 5.18565 26.9537 5.53427C27.6055 5.88288 28.1171 6.39446 28.4657 7.04631C28.8143 7.69816 29 8.34473 29 10.1278V19.1542L28.999 19.245V16.017L28.9933 16.1166C28.9355 16.614 28.5128 17 28 17C27.4477 17 27 16.5523 27 16V13H7V18.4361C7 19.3276 7.09283 19.6509 7.26713 19.9768C7.44144 20.3028 7.69723 20.5586 8.02315 20.7329C8.32401 20.8938 8.62261 20.9852 9.36798 20.9984L9.56389 21H25.586L23.2929 18.7071C22.9024 18.3166 22.9024 17.6834 23.2929 17.2929C23.6834 16.9024 24.3166 16.9024 24.7071 17.2929L28.7071 21.2929C29.0976 21.6834 29.0976 22.3166 28.7071 22.7071L24.7071 26.7071C24.3166 27.0976 23.6834 27.0976 23.2929 26.7071C22.9024 26.3166 22.9024 25.6834 23.2929 25.2929L25.5913 22.9943C25.4564 22.9981 25.3112 23 25.1542 23H10.1278C8.34473 23 7.69816 22.8143 7.04631 22.4657C6.39446 22.1171 5.88288 21.6055 5.53427 20.9537C5.18565 20.3018 5 19.6553 5 17.8722V10.1278C5 8.34473 5.18565 7.69816 5.53427 7.04631C5.88288 6.39446 6.39446 5.88288 7.04631 5.53427C7.69816 5.18565 8.34473 5 10.1278 5H23.8722ZM24.4361 7H9.56389C8.67237 7 8.34908 7.09283 8.02315 7.26713C7.69723 7.44144 7.44144 7.69723 7.26713 8.02315C7.10623 8.32401 7.01476 8.62261 7.00164 9.36798L7 9.56388V11H27V9.56388C27 8.67237 26.9072 8.34908 26.7329 8.02315C26.5586 7.69723 26.3028 7.44144 25.9768 7.26713C25.6509 7.09283 25.3276 7 24.4361 7Z" fill="#37ECF5"/>
</g>
<defs>
<filter id="filter0_d" x="0" y="0" width="34" height="32" filterUnits="userSpaceOnUse" color-interpolation-filters="sRGB">
<feFlood flood-opacity="0" result="BackgroundImageFix"/>
<feColorMatrix in="SourceAlpha" type="matrix" values="0 0 0 0 0 0 0 0 0 0 0 0 0 0 0 0 0 0 127 0"/>
<feOffset/>
<feGaussianBlur stdDeviation="2.5"/>
<feColorMatrix type="matrix" values="0 0 0 0 0.215686 0 0 0 0 0.92549 0 0 0 0 0.960784 0 0 0 0.33 0"/>
<feBlend mode="normal" in2="BackgroundImageFix" result="effect1_dropShadow"/>
<feBlend mode="normal" in="SourceGraphic" in2="effect1_dropShadow" result="shape"/>
</filter>
</defs>
</svg>
