<svg width="34" height="33" viewBox="0 0 34 33" fill="none" xmlns="http://www.w3.org/2000/svg">
<g filter="url(#filter0_d)">
<path d="M27 13.8458C27 12.7776 26.9266 12.3973 26.7175 12.0063C26.5492 11.6917 26.3083 11.4508 25.9937 11.2825C25.6027 11.0734 25.2224 11 24.1542 11H7V20.1542C7 21.2224 7.07344 21.6027 7.28251 21.9937C7.45077 22.3083 7.69171 22.5492 8.00633 22.7175C8.39726 22.9266 8.77757 23 9.84583 23H25.585L24.2929 21.7071C23.9024 21.3166 23.9024 20.6834 24.2929 20.2929C24.6834 19.9024 25.3166 19.9024 25.7071 20.2929L28.7071 23.2929C29.0976 23.6834 29.0976 24.3166 28.7071 24.7071L25.7071 27.7071C25.3166 28.0976 24.6834 28.0976 24.2929 27.7071C23.9024 27.3166 23.9024 26.6834 24.2929 26.2929L25.585 25H9.84583C8.47564 25 7.78342 24.8663 7.06313 24.4811C6.39998 24.1265 5.87355 23.6 5.51889 22.9369C5.13367 22.2166 5 21.5244 5 20.1542V9H5.002L5.00211 8.9453C5.01921 7.94498 5.14224 7.38674 5.4521 6.80734C5.76319 6.22567 6.22567 5.76319 6.80734 5.4521C7.43503 5.11641 8.03787 5 9.20486 5H20.7951C21.9621 5 22.565 5.11641 23.1927 5.4521C23.7743 5.76319 24.2368 6.22567 24.5479 6.80734C24.8654 7.4011 24.9868 7.97263 24.999 9.02047C25.844 9.07473 26.3821 9.22221 26.9369 9.51889C27.6 9.87355 28.1265 10.4 28.4811 11.0631C28.8663 11.7834 29 12.4756 29 13.8458V18C29 18.5523 28.5523 19 28 19C27.4477 19 27 18.5523 27 18V13.8458ZM23 16C23.5523 16 24 16.4477 24 17C24 17.5523 23.5523 18 23 18H21C20.4477 18 20 17.5523 20 17C20 16.4477 20.4477 16 21 16H23ZM20.7951 7H9.20486C8.3398 7 8.04887 7.05618 7.75054 7.21573C7.5174 7.34041 7.34041 7.5174 7.21573 7.75054C7.06949 8.02398 7.01009 8.29121 7.0012 9H22.9988C22.9899 8.29121 22.9305 8.02398 22.7843 7.75054C22.6596 7.5174 22.4826 7.34041 22.2495 7.21573C21.9511 7.05618 21.6602 7 20.7951 7Z" fill="#37ECF5"/>
</g>
<defs>
<filter id="filter0_d" x="0" y="0" width="34" height="33" filterUnits="userSpaceOnUse" color-interpolation-filters="sRGB">
<feFlood flood-opacity="0" result="BackgroundImageFix"/>
<feColorMatrix in="SourceAlpha" type="matrix" values="0 0 0 0 0 0 0 0 0 0 0 0 0 0 0 0 0 0 127 0"/>
<feOffset/>
<feGaussianBlur stdDeviation="2.5"/>
<feColorMatrix type="matrix" values="0 0 0 0 0.215686 0 0 0 0 0.92549 0 0 0 0 0.960784 0 0 0 0.33 0"/>
<feBlend mode="normal" in2="BackgroundImageFix" result="effect1_dropShadow"/>
<feBlend mode="normal" in="SourceGraphic" in2="effect1_dropShadow" result="shape"/>
</filter>
</defs>
</svg>
