<svg width="49" height="66" viewBox="0 0 49 66" fill="none" xmlns="http://www.w3.org/2000/svg">
<g filter="url(#filter0_d)">
<path d="M17.2654 55.138C15.5992 61.5617 18.1008 62.8925 22.576 58.2027L41.3742 37.5258C45.7235 32.444 44.6342 28.3611 38.3707 27.3404L29.3073 25.7336C28.7778 25.6397 28.4281 25.1527 28.5261 24.6459C28.5294 24.6292 28.5331 24.6125 28.5373 24.596L32.0251 10.8203C33.696 4.35574 30.9111 3.18503 26.7338 7.76617C20.7317 14.2445 16.1705 19.1384 13.0501 22.4478C11.9622 23.6017 10.2111 25.4026 7.79676 27.8507C2.50545 33.4714 5.29031 37.5477 11.4106 38.5684L20.0724 40.0548C20.6024 40.1458 20.9551 40.6308 20.8601 41.1382C20.8564 41.1577 20.8521 41.1771 20.8472 41.1964L17.2654 55.138Z" fill="#D34E57"/>
</g>
<defs>
<filter id="filter0_d" x="0" y="0" width="49" height="66" filterUnits="userSpaceOnUse" color-interpolation-filters="sRGB">
<feFlood flood-opacity="0" result="BackgroundImageFix"/>
<feColorMatrix in="SourceAlpha" type="matrix" values="0 0 0 0 0 0 0 0 0 0 0 0 0 0 0 0 0 0 127 0"/>
<feOffset/>
<feGaussianBlur stdDeviation="2.5"/>
<feColorMatrix type="matrix" values="0 0 0 0 0.827451 0 0 0 0 0.305882 0 0 0 0 0.341176 0 0 0 1 0"/>
<feBlend mode="normal" in2="BackgroundImageFix" result="effect1_dropShadow"/>
<feBlend mode="normal" in="SourceGraphic" in2="effect1_dropShadow" result="shape"/>
</filter>
</defs>
</svg>
