<svg width="35" height="32" viewBox="0 0 35 32" fill="none" xmlns="http://www.w3.org/2000/svg">
<g filter="url(#filter0_d)">
<path d="M28.75 24.4118C29.4404 24.4118 30 24.9912 30 25.7059C30 26.4206 29.4404 27 28.75 27H6.25C5.55964 27 5 26.4206 5 25.7059C5 24.9912 5.55964 24.4118 6.25 24.4118H28.75ZM27.5 5C28.1904 5 28.75 5.5794 28.75 6.29412V12.7647C28.75 13.4794 28.1904 14.0588 27.5 14.0588C26.8096 14.0588 26.25 13.4794 26.25 12.7647V9.41812L18.3839 17.5621C17.9333 18.0286 17.2242 18.0645 16.7339 17.6698L16.6161 17.5621L13.75 14.5949L8.38388 20.1504C7.89573 20.6558 7.10427 20.6558 6.61612 20.1504C6.12796 19.645 6.12796 18.8256 6.61612 18.3202L12.8661 11.8496C13.3543 11.3442 14.1457 11.3442 14.6339 11.8496L17.5 14.8169L24.48 7.58824H21.25C20.609 7.58824 20.0806 7.08865 20.0084 6.44504L20 6.29412C20 5.5794 20.5596 5 21.25 5H27.5Z" fill="#D34E57"/>
</g>
<defs>
<filter id="filter0_d" x="0" y="0" width="35" height="32" filterUnits="userSpaceOnUse" color-interpolation-filters="sRGB">
<feFlood flood-opacity="0" result="BackgroundImageFix"/>
<feColorMatrix in="SourceAlpha" type="matrix" values="0 0 0 0 0 0 0 0 0 0 0 0 0 0 0 0 0 0 127 0"/>
<feOffset/>
<feGaussianBlur stdDeviation="2.5"/>
<feColorMatrix type="matrix" values="0 0 0 0 0.827451 0 0 0 0 0.305882 0 0 0 0 0.341176 0 0 0 1 0"/>
<feBlend mode="normal" in2="BackgroundImageFix" result="effect1_dropShadow"/>
<feBlend mode="normal" in="SourceGraphic" in2="effect1_dropShadow" result="shape"/>
</filter>
</defs>
</svg>
