<svg width="84" height="82" viewBox="0 0 84 82" fill="none" xmlns="http://www.w3.org/2000/svg">
<path d="M1.66236 73.0699L1.66223 73.0703C1.55671 73.483 1.5332 74.0547 1.5332 74.4682C1.5332 74.8783 1.5562 75.449 1.66225 75.8617C2.22619 78.0665 4.03857 79.9003 6.24897 80.3434C6.28507 80.3508 6.32599 80.3593 6.36858 80.3681C6.49539 80.3943 6.63708 80.4236 6.71072 80.4373C6.85535 80.4654 6.97993 80.4707 7.00876 80.4719L7.01339 80.4721C7.09162 80.4761 7.17625 80.4776 7.25633 80.4781C7.41916 80.479 7.61342 80.4754 7.80404 80.4689L7.80562 80.4689C9.39848 80.4128 10.6902 79.8305 11.8235 78.7077C12.9256 77.6221 13.469 76.4301 13.6011 74.8728L18.9738 69.5407L23.6885 64.8616L28.3722 69.505C29.955 71.0741 31.3937 72.493 32.4377 73.5158C32.9592 74.0268 33.3844 74.4411 33.6804 74.7265C33.8275 74.8683 33.9474 74.9829 34.0328 75.0627C34.0734 75.1007 34.1166 75.1407 34.1546 75.174C34.1684 75.1862 34.2073 75.2204 34.2545 75.2566C34.2631 75.2632 34.3449 75.3275 34.458 75.3888C34.4674 75.3939 34.7035 75.5333 35.0353 75.5642C35.2118 75.5806 35.6782 75.5908 36.1152 75.239C36.5947 74.853 36.6747 74.3338 36.6747 74.0703C36.6747 73.9078 36.6462 73.7751 36.6437 73.7632L36.6435 73.7624C36.6354 73.7221 36.6269 73.6881 36.6218 73.6679C36.611 73.6255 36.5989 73.5834 36.5889 73.5495C36.568 73.4787 36.5409 73.3921 36.5112 73.2997C36.4509 73.1125 36.3699 72.8699 36.2821 72.6152C36.217 72.4259 36.0834 72.0358 35.9077 71.5226C35.6183 70.6774 35.2147 69.4985 34.8142 68.3338C34.4472 67.2563 34.0841 66.198 33.8174 65.421C33.6202 64.8464 33.4758 64.4256 33.4216 64.2644L33.4191 64.257L33.2573 63.7838C33.1326 63.4194 32.9254 63.0887 32.6519 62.8176L31.3984 61.5748L31.0591 61.2385L36.5354 55.8093L42.0302 50.3618L47.5066 55.7911L52.9707 61.2083L52.6131 61.5627L52.6109 61.565L51.35 62.8204C51.0785 63.0907 50.8728 63.4197 50.7487 63.7821L49.5932 67.1563L49.5923 67.1591C49.2299 68.2243 48.9272 69.1137 48.6745 69.8562C48.2073 71.229 47.9109 72.0999 47.7233 72.6528C47.5795 73.0769 47.4974 73.3205 47.4512 73.4611C47.4291 73.5282 47.41 73.5875 47.3956 73.6362C47.3888 73.6589 47.3766 73.701 47.3651 73.7507L47.3645 73.7533C47.3568 73.7864 47.3247 73.9247 47.3247 74.1005C47.3499 74.3744 47.6127 74.9843 47.8839 75.2688C48.1846 75.4571 48.741 75.5982 48.9628 75.5942C49.2824 75.5647 49.513 75.4344 49.5373 75.4207L49.5391 75.4196C49.6513 75.3589 49.7317 75.2956 49.7385 75.2904C49.782 75.2571 49.8154 75.2276 49.8218 75.222C49.8324 75.2127 49.8426 75.2034 49.8518 75.1951C49.8626 75.1852 49.8719 75.1766 49.8784 75.1705C49.9066 75.1442 49.9425 75.1099 49.982 75.0718C50.063 74.9939 50.1795 74.8806 50.326 74.7376C50.6198 74.4506 51.0433 74.0347 51.5644 73.5214C52.6071 72.4945 54.045 71.0736 55.6272 69.505L60.3103 64.8621L65.0189 69.5401L65.02 69.5412L70.3943 74.8693C70.4625 75.6087 70.615 76.282 70.9166 76.932C71.6592 78.5618 73.0436 79.7287 74.7681 80.258C75.3298 80.4315 75.716 80.4698 76.3989 80.4698C76.8575 80.4698 77.4407 80.4352 77.8201 80.3412L77.8298 80.3387C80.0589 79.7704 81.7558 78.0951 82.3344 75.872C82.4446 75.4554 82.4662 74.8583 82.4662 74.4501C82.4662 74.2131 82.4584 73.9676 82.4411 73.7439C82.4265 73.5552 82.3981 73.275 82.3239 73.0218C81.9793 71.8321 81.416 70.8846 80.5276 70.0593L80.527 70.0588C79.5028 69.1084 78.2249 68.5788 76.8144 68.4677L71.4338 63.139L66.738 58.4885L71.4338 53.8283L71.4349 53.8272L76.5937 48.7181L75.5382 47.6524L76.5937 48.7181C77.8739 47.4503 76.5626 45.3241 74.8561 45.8969C74.6914 45.9521 74.3828 46.056 73.9747 46.1935C73.1507 46.4712 71.9212 46.8855 70.6516 47.3105L70.6474 47.3119C68.7912 47.9394 66.8614 48.5852 66.3559 48.7542L66.3526 48.7554L65.6584 48.9894C65.2968 49.1113 64.9678 49.3143 64.6968 49.583L63.4417 50.8273L63.0841 51.1819L57.6015 45.7465L52.1435 40.3355L65.0847 27.5056L78.8715 13.8374L77.8154 12.7722L78.8715 13.8374C79.2434 13.4687 79.4901 12.9925 79.5769 12.476L80.3214 8.0417C80.3214 8.04131 80.3215 8.04092 80.3216 8.04053C80.5442 6.7283 80.744 5.53515 80.8875 4.66859C80.9593 4.23542 81.0172 3.8826 81.0568 3.63687C81.0766 3.51452 81.0923 3.41605 81.103 3.34664C81.1082 3.31293 81.1131 3.28068 81.1169 3.25427C81.1185 3.24293 81.1214 3.22189 81.1241 3.19878L81.1241 3.19864C81.1251 3.19015 81.1285 3.16105 81.131 3.12475L81.1311 3.12451C81.132 3.11074 81.1354 3.06197 81.1346 2.99982C81.1343 2.97335 81.133 2.89822 81.1192 2.8033C81.1111 2.75292 81.0829 2.62748 81.0608 2.55313C81.0161 2.43357 80.8403 2.12587 80.6912 1.95343L80.6912 1.95338C80.6911 1.95328 80.691 1.95318 80.6909 1.95308C80.6908 1.95296 80.6907 1.95284 80.6906 1.95272L80.6905 1.95277C80.5179 1.80589 80.2115 1.63348 80.0931 1.5899C80.0197 1.56837 79.8959 1.54104 79.8463 1.5331C79.7527 1.51977 79.6787 1.5185 79.6527 1.51817C79.5913 1.51742 79.5431 1.52074 79.5297 1.52166L79.5296 1.52167C79.4938 1.52414 79.465 1.52744 79.4567 1.5284L79.4566 1.52842C79.4337 1.53104 79.4129 1.53391 79.4016 1.53549C79.3753 1.53915 79.3431 1.54395 79.3093 1.54909C79.2398 1.55967 79.141 1.57513 79.0182 1.5946C78.7717 1.63368 78.4175 1.69063 77.9829 1.76091C77.1134 1.90156 75.9166 2.09655 74.6032 2.31104L74.6002 2.31154L70.131 3.05093C69.6196 3.13554 69.1471 3.37705 68.779 3.74201L54.978 17.4243L54.9775 17.4248L42.0001 30.2793L29.0462 17.4368L15.2631 3.7723L14.2071 4.83754L15.2631 3.7723C14.8949 3.40721 14.4222 3.16567 13.9106 3.08113L9.43814 2.34214C9.43769 2.34207 9.43723 2.34199 9.43678 2.34192C7.27595 1.98087 6.05801 1.78099 5.38132 1.68426C5.06153 1.63855 4.79098 1.60486 4.58579 1.59852C4.5845 1.59848 4.58315 1.59844 4.58174 1.59839C4.50677 1.59605 4.26647 1.58852 4.00178 1.66718C3.85448 1.71096 3.56548 1.81943 3.30897 2.09524C3.01194 2.41462 2.90125 2.80185 2.90125 3.13292C2.90125 3.19383 2.90509 3.24195 2.90615 3.25518L2.90617 3.2555C2.90781 3.27604 2.90957 3.29299 2.91069 3.30328C2.91295 3.3241 2.91532 3.34259 2.91691 3.35459C2.92025 3.37982 2.92426 3.40752 2.92816 3.43371C2.93618 3.4876 2.94731 3.55921 2.96075 3.64391C2.98781 3.81451 3.02659 4.05329 3.07409 4.34253C3.16922 4.92178 3.30074 5.71186 3.44674 6.58223C3.73869 8.32263 4.08963 10.3905 4.32496 11.7449L4.32494 11.7449L4.32603 11.751L4.45332 12.4661C4.54364 12.9735 4.78854 13.4405 5.15452 13.8034L18.9452 27.4754L31.8863 40.3053L26.41 45.7345L20.9153 51.1819L20.5576 50.8273L20.5552 50.8249C19.9128 50.1909 19.5068 49.7919 19.22 49.5448C18.8584 49.2334 18.584 49.0746 18.2208 48.9455C17.9825 48.8601 16.2671 48.2812 14.4141 47.6609C12.5358 47.0321 10.4493 46.3325 9.77662 46.1042L9.77276 46.1029C9.43767 45.9902 9.12844 45.8836 8.89992 45.8034C8.78533 45.7632 8.6934 45.7305 8.62983 45.7074C8.61312 45.7014 8.59938 45.6964 8.5884 45.6923C8.40034 45.6097 8.11133 45.5257 7.75806 45.5724C7.46906 45.6106 7.08845 45.7493 6.79259 46.1013C6.50246 46.4465 6.43562 46.8283 6.43562 47.0836C6.43562 47.4121 6.5468 47.6539 6.56911 47.7024L6.57091 47.7063C6.60931 47.7905 6.64738 47.853 6.66562 47.8821C6.70406 47.9433 6.7387 47.9884 6.7509 48.0042C6.7801 48.042 6.8055 48.0711 6.81415 48.081C6.83618 48.1061 6.85749 48.1291 6.87041 48.1429C6.89953 48.174 6.93633 48.2122 6.97622 48.2533C7.05792 48.3375 7.17492 48.4565 7.32123 48.6044C7.6149 48.9012 8.03775 49.3258 8.55753 49.8456C9.59764 50.8858 11.0313 52.3132 12.6077 53.876L17.2613 58.4897L12.5711 63.1395L7.19676 68.4677C4.53008 68.6722 2.32391 70.4864 1.66236 73.0699ZM13.6164 74.6895C13.6164 74.6899 13.6163 74.6902 13.6163 74.6905L13.6164 74.6895ZM70.3793 74.6824L70.3794 74.6835C70.3793 74.6831 70.3793 74.6827 70.3793 74.6823L70.3793 74.6824ZM75.8089 48.7416C75.8082 48.7418 75.8076 48.742 75.8069 48.7422L75.8089 48.7416Z" fill="#D34E57" stroke="#292E3E" stroke-width="3"/>
</svg>
