<svg width="15" height="15" viewBox="0 0 15 15" fill="none" xmlns="http://www.w3.org/2000/svg">
<path d="M7.5 14C11.0899 14 14 11.0899 14 7.5C14 3.91015 11.0899 1 7.5 1C3.91015 1 1 3.91015 1 7.5C1 11.0899 3.91015 14 7.5 14Z" stroke="#D34E57" stroke-miterlimit="10"/>
<path d="M5.30094 10.6043C4.08657 10.6043 3.4021 9.86138 3.34322 8.45718H3.02675C2.82067 8.45718 2.69556 8.34574 2.69556 8.16743C2.69556 7.98912 2.82067 7.87768 3.02675 7.87768H3.30642V7.20158H3.02675C2.82067 7.20158 2.69556 7.09014 2.69556 6.91183C2.69556 6.73352 2.82067 6.62207 3.02675 6.62207H3.31378C3.3653 5.23274 4.04977 4.39319 5.24942 4.39319C5.72072 4.37214 6.18281 4.52964 6.545 4.83479C6.90719 5.13994 7.14335 5.57071 7.20714 6.04256C7.21226 6.08554 7.20887 6.12911 7.19717 6.17076C7.18547 6.2124 7.1657 6.25128 7.139 6.28515C7.11229 6.31902 7.07919 6.34719 7.04162 6.36804C7.00404 6.3889 6.96274 6.40201 6.92011 6.40662H6.87595C6.69931 6.40662 6.58891 6.29517 6.50796 6.06485C6.4522 5.78447 6.29938 5.53329 6.07686 5.35631C5.85434 5.17933 5.57666 5.08812 5.29358 5.09901C4.5576 5.09901 4.13809 5.62651 4.09393 6.62207H5.47022C5.67629 6.62207 5.79405 6.72609 5.79405 6.91183C5.79503 6.94952 5.78853 6.98704 5.77491 7.02215C5.7613 7.05727 5.74085 7.08927 5.71478 7.11628C5.68872 7.14329 5.65755 7.16475 5.62313 7.1794C5.58871 7.19405 5.55173 7.2016 5.51438 7.20158H4.07921V7.87768H5.47022C5.67629 7.87768 5.79405 7.98169 5.79405 8.16743C5.79503 8.20513 5.78853 8.24264 5.77491 8.27775C5.7613 8.31287 5.74085 8.34488 5.71478 8.37188C5.68872 8.39889 5.65755 8.42035 5.62313 8.43501C5.58871 8.44966 5.55173 8.4572 5.51438 8.45718H4.09393C4.13809 9.43046 4.54288 9.9431 5.31566 9.9431C5.59401 9.96144 5.86953 9.87753 6.09138 9.70683C6.31322 9.53614 6.46641 9.2902 6.52267 9.0144C6.59627 8.76923 6.69195 8.66521 6.87595 8.66521C6.92505 8.66689 6.97327 8.67888 7.01752 8.70043C7.06178 8.72198 7.10109 8.75262 7.13295 8.79037C7.16481 8.82813 7.18852 8.87218 7.20256 8.91971C7.2166 8.96724 7.22067 9.0172 7.2145 9.06641C7.1438 9.51787 6.9081 9.9262 6.55388 10.2109C6.19966 10.4956 5.75263 10.636 5.30094 10.6043Z" fill="#D34E57"/>
<path d="M9.45732 10.8223V10.3939C9.00596 10.3573 8.57522 10.1834 8.2196 9.89397C8.0992 9.80688 7.99809 9.69435 7.92299 9.56385C7.84789 9.43335 7.8005 9.28784 7.78397 9.13699C7.78012 9.09339 7.78513 9.04944 7.79869 9.00796C7.81224 8.96648 7.83404 8.92837 7.86268 8.8961C7.89133 8.86383 7.92619 8.83809 7.96503 8.82055C8.00387 8.803 8.04583 8.79403 8.08822 8.79421C8.21268 8.79421 8.268 8.79421 8.44087 9.06558C8.59111 9.29878 8.79778 9.48736 9.04036 9.61263C9.28294 9.7379 9.55302 9.79549 9.8238 9.77971C10.5775 9.77971 11.027 9.4155 11.027 8.81563C11.027 8.35145 10.7642 8.1015 10.135 7.92297L9.2084 7.68017C8.85443 7.63219 8.529 7.45426 8.29158 7.17891C8.05417 6.90355 7.92062 6.54916 7.91535 6.18049C7.91892 5.9695 7.96305 5.76135 8.04518 5.56813C8.12731 5.3749 8.24581 5.20047 8.39378 5.05495C8.54176 4.90943 8.71626 4.79574 8.90715 4.72048C9.09804 4.64522 9.3015 4.60989 9.50573 4.61655V4.19521C9.49907 4.14948 9.50205 4.10281 9.51446 4.05839C9.52686 4.01396 9.54841 3.97282 9.57762 3.93777C9.60683 3.90273 9.64302 3.87461 9.68372 3.85534C9.72441 3.83606 9.76866 3.82608 9.81343 3.82608C9.8582 3.82608 9.90245 3.83606 9.94314 3.85534C9.98384 3.87461 10.02 3.90273 10.0492 3.93777C10.0785 3.97282 10.1 4.01396 10.1124 4.05839C10.1248 4.10281 10.1278 4.14948 10.1211 4.19521V4.61655C10.5519 4.66163 10.9571 4.84953 11.2759 5.15215C11.4882 5.32964 11.6248 5.58602 11.6562 5.86628C11.6602 5.90735 11.6556 5.94884 11.6427 5.9879C11.6297 6.02696 11.6087 6.06265 11.5811 6.09251C11.5535 6.12238 11.52 6.14571 11.4828 6.1609C11.4456 6.17609 11.4057 6.18277 11.3658 6.18049C11.2275 6.18049 11.1376 6.11622 10.9924 5.90198C10.8671 5.67758 10.6851 5.49257 10.4659 5.36678C10.2466 5.24099 9.9984 5.17914 9.74774 5.18785C9.05627 5.18785 8.62065 5.55206 8.62065 6.10194C8.62065 6.52328 8.89724 6.81607 9.40892 6.96604L10.3147 7.20884C11.2966 7.45879 11.7392 7.92297 11.7392 8.7228C11.7412 8.94708 11.6991 9.16946 11.6155 9.37645C11.5318 9.58345 11.4084 9.77074 11.2525 9.92699C11.0967 10.0832 10.9118 10.2052 10.709 10.2854C10.5062 10.3657 10.2897 10.4026 10.0727 10.3939V10.8438C10.0782 10.8876 10.074 10.9322 10.0604 10.9741C10.0468 11.016 10.0241 11.0543 9.9942 11.0859C9.96426 11.1175 9.92778 11.1417 9.88749 11.1566C9.8472 11.1716 9.80415 11.1769 9.76157 11.1723C9.7175 11.1765 9.67308 11.1701 9.63186 11.1534C9.59064 11.1368 9.55376 11.1104 9.52419 11.0764C9.49462 11.0424 9.47317 11.0017 9.46156 10.9576C9.44994 10.9134 9.4485 10.8671 9.45732 10.8223Z" fill="#D34E57"/>
</svg>
