<svg width="28" height="28" viewBox="0 0 28 28" fill="none" xmlns="http://www.w3.org/2000/svg">
<g filter="url(#filter0_d)">
<path d="M16.534 5C17.0313 5 17.5082 5.19754 17.8598 5.54917L22.4508 10.1402C22.8025 10.4918 23 10.9687 23 11.466V16.534C23 17.0313 22.8025 17.5082 22.4508 17.8598L17.8598 22.4508C17.5082 22.8025 17.0313 23 16.534 23H11.466C10.9687 23 10.4918 22.8025 10.1402 22.4508L5.54917 17.8598C5.19754 17.5082 5 17.0313 5 16.534V11.466C5 10.9687 5.19754 10.4918 5.54917 10.1402L10.1402 5.54917C10.4918 5.19754 10.9687 5 11.466 5H16.534ZM16.534 6.5H11.466C11.3665 6.5 11.2712 6.53951 11.2008 6.60984L6.60984 11.2008C6.53951 11.2712 6.5 11.3665 6.5 11.466V16.534C6.5 16.6335 6.53951 16.7288 6.60984 16.7992L11.2008 21.3902C11.2712 21.4605 11.3665 21.5 11.466 21.5H16.534C16.6335 21.5 16.7288 21.4605 16.7992 21.3902L21.3902 16.7992C21.4605 16.7288 21.5 16.6335 21.5 16.534V11.466C21.5 11.3665 21.4605 11.2712 21.3902 11.2008L16.7992 6.60984C16.7288 6.53951 16.6335 6.5 16.534 6.5ZM14 16.1001L14.0921 16.1047C14.5459 16.1508 14.9 16.534 14.9 17C14.9 17.497 14.4971 17.8999 14.0001 17.8999L13.908 17.8953C13.4542 17.8492 13.1001 17.466 13.1001 17C13.1001 16.503 13.503 16.1001 14 16.1001ZM14 9.5C14.4142 9.5 14.75 9.83579 14.75 10.25V14C14.75 14.4142 14.4142 14.75 14 14.75C13.5858 14.75 13.25 14.4142 13.25 14V10.25C13.25 9.83579 13.5858 9.5 14 9.5Z" fill="#37ECF5"/>
</g>
<defs>
<filter id="filter0_d" x="0" y="0" width="28" height="28" filterUnits="userSpaceOnUse" color-interpolation-filters="sRGB">
<feFlood flood-opacity="0" result="BackgroundImageFix"/>
<feColorMatrix in="SourceAlpha" type="matrix" values="0 0 0 0 0 0 0 0 0 0 0 0 0 0 0 0 0 0 127 0"/>
<feOffset/>
<feGaussianBlur stdDeviation="2.5"/>
<feColorMatrix type="matrix" values="0 0 0 0 0.215686 0 0 0 0 0.92549 0 0 0 0 0.960784 0 0 0 0.33 0"/>
<feBlend mode="normal" in2="BackgroundImageFix" result="effect1_dropShadow"/>
<feBlend mode="normal" in="SourceGraphic" in2="effect1_dropShadow" result="shape"/>
</filter>
</defs>
</svg>
