<svg width="35" height="35" viewBox="0 0 35 35" fill="none" xmlns="http://www.w3.org/2000/svg">
<g filter="url(#filter0_d)">
<path d="M17.5 29C23.8513 29 29 23.8513 29 17.5C29 11.1487 23.8513 6 17.5 6C11.1487 6 6 11.1487 6 17.5C6 23.8513 11.1487 29 17.5 29Z" stroke="#37ECF5" stroke-width="2" stroke-miterlimit="10"/>
<path d="M13.6095 22.9922C11.461 22.9922 10.25 21.6778 10.1459 19.1934H9.58596C9.22136 19.1934 9 18.9963 9 18.6808C9 18.3653 9.22136 18.1682 9.58596 18.1682H10.0808V16.972H9.58596C9.22136 16.972 9 16.7748 9 16.4593C9 16.1439 9.22136 15.9467 9.58596 15.9467H10.0938C10.1849 13.4887 11.3959 12.0033 13.5184 12.0033C14.3522 11.9661 15.1697 12.2447 15.8106 12.7846C16.4514 13.3245 16.8692 14.0866 16.982 14.9214C16.9911 14.9975 16.9851 15.0745 16.9644 15.1482C16.9437 15.2219 16.9087 15.2907 16.8615 15.3506C16.8142 15.4105 16.7557 15.4604 16.6892 15.4973C16.6227 15.5342 16.5496 15.5574 16.4742 15.5655H16.3961C16.0836 15.5655 15.8882 15.3683 15.745 14.9609C15.6464 14.4648 15.376 14.0204 14.9823 13.7073C14.5886 13.3942 14.0973 13.2328 13.5965 13.252C12.2944 13.252 11.5522 14.1853 11.474 15.9467H13.909C14.2736 15.9467 14.4819 16.1307 14.4819 16.4593C14.4837 16.526 14.4722 16.5924 14.4481 16.6545C14.424 16.7167 14.3878 16.7733 14.3417 16.8211C14.2956 16.8689 14.2405 16.9068 14.1796 16.9328C14.1187 16.9587 14.0532 16.972 13.9871 16.972H11.448V18.1682H13.909C14.2736 18.1682 14.4819 18.3522 14.4819 18.6808C14.4837 18.7475 14.4722 18.8139 14.4481 18.876C14.424 18.9381 14.3878 18.9947 14.3417 19.0425C14.2956 19.0903 14.2405 19.1283 14.1796 19.1542C14.1187 19.1801 14.0532 19.1935 13.9871 19.1934H11.474C11.5522 20.9154 12.2683 21.8224 13.6356 21.8224C14.128 21.8548 14.6155 21.7064 15.008 21.4044C15.4005 21.1024 15.6715 20.6672 15.7711 20.1793C15.9013 19.7455 16.0705 19.5615 16.3961 19.5615C16.483 19.5645 16.5683 19.5857 16.6466 19.6238C16.7248 19.6619 16.7944 19.7161 16.8508 19.7829C16.9071 19.8497 16.9491 19.9277 16.9739 20.0118C16.9988 20.0958 17.006 20.1842 16.9951 20.2713C16.87 21.07 16.453 21.7925 15.8263 22.2962C15.1996 22.7998 14.4087 23.0482 13.6095 22.9922Z" fill="#37ECF5"/>
<path d="M20.9628 23.378V22.6199C20.1642 22.5553 19.4021 22.2475 18.7729 21.7355C18.5599 21.5814 18.381 21.3823 18.2482 21.1514C18.1153 20.9205 18.0315 20.6631 18.0022 20.3962C17.9954 20.3191 18.0043 20.2413 18.0283 20.1679C18.0522 20.0945 18.0908 20.0271 18.1415 19.97C18.1922 19.9129 18.2538 19.8674 18.3226 19.8364C18.3913 19.8053 18.4655 19.7894 18.5405 19.7898C18.7607 19.7898 18.8586 19.7898 19.1644 20.2699C19.4302 20.6825 19.7959 21.0161 20.2251 21.2377C20.6542 21.4594 21.1321 21.5613 21.6112 21.5333C22.9446 21.5333 23.7398 20.889 23.7398 19.8277C23.7398 19.0064 23.2749 18.5642 22.1617 18.2483L20.5224 17.8188C19.8961 17.7339 19.3203 17.4191 18.9003 16.9319C18.4803 16.4448 18.244 15.8178 18.2347 15.1655C18.241 14.7922 18.319 14.4239 18.4644 14.0821C18.6097 13.7402 18.8193 13.4316 19.0811 13.1742C19.3429 12.9167 19.6517 12.7156 19.9894 12.5824C20.3271 12.4492 20.6871 12.3867 21.0484 12.3985V11.6531C21.0366 11.5722 21.0419 11.4896 21.0639 11.411C21.0858 11.3324 21.1239 11.2596 21.1756 11.1976C21.2273 11.1356 21.2913 11.0859 21.3633 11.0518C21.4353 11.0177 21.5136 11 21.5928 11C21.672 11 21.7503 11.0177 21.8223 11.0518C21.8943 11.0859 21.9583 11.1356 22.01 11.1976C22.0617 11.2596 22.0998 11.3324 22.1218 11.411C22.1437 11.4896 22.149 11.5722 22.1372 11.6531V12.3985C22.8994 12.4783 23.6161 12.8107 24.1802 13.3461C24.5559 13.6601 24.7975 14.1137 24.8531 14.6096C24.8603 14.6822 24.8521 14.7557 24.8292 14.8248C24.8062 14.8939 24.7691 14.957 24.7202 15.0098C24.6714 15.0627 24.612 15.104 24.5463 15.1308C24.4805 15.1577 24.4099 15.1695 24.3393 15.1655C24.0946 15.1655 23.9355 15.0518 23.6786 14.6728C23.457 14.2757 23.135 13.9484 22.7471 13.7259C22.3593 13.5033 21.9201 13.3939 21.4766 13.4093C20.2532 13.4093 19.4825 14.0537 19.4825 15.0265C19.4825 15.772 19.9718 16.29 20.8771 16.5553L22.4797 16.9849C24.2169 17.4271 24.9999 18.2483 24.9999 19.6634C25.0035 20.0602 24.929 20.4537 24.781 20.8199C24.633 21.1861 24.4146 21.5175 24.1389 21.7939C23.8632 22.0704 23.5361 22.2861 23.1773 22.4281C22.8185 22.5701 22.4355 22.6353 22.0516 22.6199V23.4159C22.0612 23.4935 22.0537 23.5723 22.0297 23.6465C22.0056 23.7207 21.9656 23.7883 21.9126 23.8442C21.8597 23.9002 21.7951 23.943 21.7238 23.9694C21.6525 23.9959 21.5764 24.0054 21.5011 23.9971C21.4231 24.0046 21.3445 23.9932 21.2716 23.9638C21.1986 23.9343 21.1334 23.8876 21.0811 23.8274C21.0287 23.7673 20.9908 23.6953 20.9703 23.6172C20.9497 23.5392 20.9472 23.4573 20.9628 23.378Z" fill="#37ECF5"/>
</g>
<defs>
<filter id="filter0_d" x="0" y="0" width="35" height="35" filterUnits="userSpaceOnUse" color-interpolation-filters="sRGB">
<feFlood flood-opacity="0" result="BackgroundImageFix"/>
<feColorMatrix in="SourceAlpha" type="matrix" values="0 0 0 0 0 0 0 0 0 0 0 0 0 0 0 0 0 0 127 0"/>
<feOffset/>
<feGaussianBlur stdDeviation="2.5"/>
<feColorMatrix type="matrix" values="0 0 0 0 0.215686 0 0 0 0 0.92549 0 0 0 0 0.960784 0 0 0 0.33 0"/>
<feBlend mode="normal" in2="BackgroundImageFix" result="effect1_dropShadow"/>
<feBlend mode="normal" in="SourceGraphic" in2="effect1_dropShadow" result="shape"/>
</filter>
</defs>
</svg>
