<svg width="34" height="34" viewBox="0 0 34 34" fill="none" xmlns="http://www.w3.org/2000/svg">
<g filter="url(#filter0_d)">
<path d="M17 5C23.6274 5 29 10.3726 29 17C29 23.6274 23.6274 29 17 29C10.3726 29 5 23.6274 5 17C5 10.3726 10.3726 5 17 5ZM17 7C11.4772 7 7 11.4772 7 17C7 22.5228 11.4772 27 17 27C22.5228 27 27 22.5228 27 17C27 11.4772 22.5228 7 17 7ZM17.0736 15C17.3112 15 17.4604 15.0371 17.5907 15.1069C17.7211 15.1766 17.8234 15.2789 17.8931 15.4093C17.9629 15.5396 18 15.6888 18 15.9264V22.0736C18 22.3112 17.9629 22.4604 17.8931 22.5907C17.8234 22.7211 17.7211 22.8234 17.5907 22.8931C17.4604 22.9629 17.3112 23 17.0736 23H16.9264C16.6888 23 16.5396 22.9629 16.4093 22.8931C16.2789 22.8234 16.1766 22.7211 16.1069 22.5907C16.0371 22.4604 16 22.3112 16 22.0736V15.9264C16 15.6888 16.0371 15.5396 16.1069 15.4093C16.1766 15.2789 16.2789 15.1766 16.4093 15.1069C16.5396 15.0371 16.6888 15 16.9264 15H17.0736ZM17 10.6C17.7732 10.6 18.4 11.2268 18.4 12C18.4 12.7732 17.7732 13.4 17 13.4C16.2268 13.4 15.6 12.7732 15.6 12C15.6 11.2268 16.2268 10.6 17 10.6Z" fill="#D34E57"/>
</g>
<defs>
<filter id="filter0_d" x="0" y="0" width="34" height="34" filterUnits="userSpaceOnUse" color-interpolation-filters="sRGB">
<feFlood flood-opacity="0" result="BackgroundImageFix"/>
<feColorMatrix in="SourceAlpha" type="matrix" values="0 0 0 0 0 0 0 0 0 0 0 0 0 0 0 0 0 0 127 0"/>
<feOffset/>
<feGaussianBlur stdDeviation="2.5"/>
<feColorMatrix type="matrix" values="0 0 0 0 0.827451 0 0 0 0 0.305882 0 0 0 0 0.341176 0 0 0 1 0"/>
<feBlend mode="normal" in2="BackgroundImageFix" result="effect1_dropShadow"/>
<feBlend mode="normal" in="SourceGraphic" in2="effect1_dropShadow" result="shape"/>
</filter>
</defs>
</svg>
