<svg width="28" height="26" viewBox="0 0 28 26" fill="none" xmlns="http://www.w3.org/2000/svg">
<g filter="url(#filter0_d)">
<path d="M19.1542 5C20.4915 5 20.9764 5.13502 21.4653 5.38856C21.9542 5.64209 22.3378 6.01415 22.5993 6.48822C22.8608 6.9623 23 7.43253 23 8.72929V15.2939L22.9993 15.36V13.0124L22.995 13.0848C22.9516 13.4465 22.6346 13.7273 22.25 13.7273C21.8358 13.7273 21.5 13.4017 21.5 13V10.8182H6.5V14.7717C6.5 15.4201 6.56962 15.6552 6.70035 15.8923C6.83108 16.1293 7.02292 16.3153 7.26737 16.4421C7.49301 16.5591 7.71696 16.6256 8.27598 16.6352L8.42291 16.6364H20.4395L18.7197 14.9688C18.4268 14.6848 18.4268 14.2243 18.7197 13.9403C19.0126 13.6563 19.4874 13.6563 19.7803 13.9403L22.7803 16.8494C23.0732 17.1334 23.0732 17.5939 22.7803 17.8779L19.7803 20.787C19.4874 21.071 19.0126 21.071 18.7197 20.787C18.4268 20.503 18.4268 20.0425 18.7197 19.7585L20.4435 18.0867C20.3423 18.0895 20.2334 18.0909 20.1156 18.0909H8.84583C7.50855 18.0909 7.02362 17.9559 6.53473 17.7024C6.04584 17.4488 5.66216 17.0768 5.4007 16.6027C5.13924 16.1286 5 15.6584 5 14.3616V8.72929C5 7.43253 5.13924 6.9623 5.4007 6.48822C5.66216 6.01415 6.04584 5.64209 6.53473 5.38856C7.02362 5.13502 7.50855 5 8.84583 5H19.1542ZM19.5771 6.45455H8.42291C7.75427 6.45455 7.51181 6.52206 7.26737 6.64882C7.02292 6.77559 6.83108 6.96162 6.70035 7.19866C6.57968 7.41746 6.51107 7.63463 6.50123 8.17671L6.5 8.31919V9.36364H21.5V8.31919C21.5 7.67081 21.4304 7.43569 21.2997 7.19866C21.1689 6.96162 20.9771 6.77559 20.7326 6.64882C20.4882 6.52206 20.2457 6.45455 19.5771 6.45455Z" fill="#37ECF5"/>
</g>
<defs>
<filter id="filter0_d" x="0" y="0" width="28" height="26" filterUnits="userSpaceOnUse" color-interpolation-filters="sRGB">
<feFlood flood-opacity="0" result="BackgroundImageFix"/>
<feColorMatrix in="SourceAlpha" type="matrix" values="0 0 0 0 0 0 0 0 0 0 0 0 0 0 0 0 0 0 127 0"/>
<feOffset/>
<feGaussianBlur stdDeviation="2.5"/>
<feColorMatrix type="matrix" values="0 0 0 0 0.215686 0 0 0 0 0.92549 0 0 0 0 0.960784 0 0 0 0.33 0"/>
<feBlend mode="normal" in2="BackgroundImageFix" result="effect1_dropShadow"/>
<feBlend mode="normal" in="SourceGraphic" in2="effect1_dropShadow" result="shape"/>
</filter>
</defs>
</svg>
